<?xml version="1.0" encoding="utf-8"?>
<svg version="1.1" id="Layer_1"
xmlns="http://www.w3.org/2000/svg"
xmlns:xlink="http://www.w3.org/1999/xlink"
width="117px" height="89px"
xml:space="preserve">
<g id="PathID_185" transform="matrix(0.508013, 0, 0, 0.508013, 7.55, 23.55)" opacity="1">
<path style="fill:#7CCA31;fill-opacity:1" d="M3.75 0L3.75 -36.65L10.9 -36.65L26.05 -12L26.05 -36.65L32.9 -36.65L32.9 0L25.45 0L10.6 -24L10.6 0L3.75 0" />
</g>
<g id="PathID_186" transform="matrix(0.508013, 0, 0, 0.508013, 7.55, 23.55)" opacity="1">
</g>
<g id="PathID_187" transform="matrix(0.508013, 0, 0, 0.508013, 26.3, 23.55)" opacity="1">
<path style="fill:#7CCA31;fill-opacity:1" d="M8.95 -18.35L2.6 -19.5Q3.65 -23.4 6.25 -25.25Q8.9 -27.15 14.05 -27.15Q18.75 -27.15 21.05 -26Q23.35 -24.9 24.3 -23.2Q25.25 -21.5 25.25 -16.9L25.15 -8.7Q25.15 -5.2 25.45 -3.55Q25.8 -1.9 26.75 0L19.8 0Q19.5 -0.7 19.1 -2.05L18.85 -2.9Q17.05 -1.15 15 -0.25Q12.95 0.6 10.65 0.6Q6.55 0.6 4.2 -1.6Q1.85 -3.8 1.85 -7.2Q1.85 -9.45 2.9 -11.2Q3.95 -12.95 5.9 -13.85Q7.85 -14.8 11.45 -15.5Q16.4 -16.45 18.3 -17.25L18.3 -17.95Q18.3 -20 17.3 -20.85Q16.3 -21.75 13.55 -21.75Q11.65 -21.75 10.6 -20.95Q9.55 -20.2 8.95 -18.35M18.3 -12.65Q16.95 -12.2 14.05 -11.55Q11.15 -10.95 10.25 -10.35Q8.9 -9.4 8.9 -7.9Q8.9 -6.45 9.95 -5.4Q11.05 -4.35 12.75 -4.35Q14.65 -4.35 16.35 -5.55Q17.6 -6.5 18 -7.85Q18.3 -8.75 18.3 -11.25L18.3 -12.65" />
</g>
<g id="PathID_188" transform="matrix(0.508013, 0, 0, 0.508013, 26.3, 23.55)" opacity="1">
</g>
<g id="PathID_189" transform="matrix(0.508013, 0, 0, 0.508013, 40.75, 23.55)" opacity="1">
<path style="fill:#7CCA31;fill-opacity:1" d="M15.9 -26.55L15.9 -20.95L11.1 -20.95L11.1 -10.25Q11.1 -7 11.2 -6.45Q11.35 -5.9 11.85 -5.55Q12.35 -5.25 13.05 -5.25Q14 -5.25 15.85 -5.9L16.5 -0.45Q14 0.6 10.9 0.6Q9 0.6 7.45 0Q5.95 -0.65 5.25 -1.65Q4.55 -2.7 4.25 -4.4Q4.05 -5.65 4.05 -9.35L4.05 -20.95L0.8 -20.95L0.8 -26.55L4.05 -26.55L4.05 -31.85L11.1 -36L11.1 -26.55L15.9 -26.55" />
</g>
<g id="PathID_190" transform="matrix(0.508013, 0, 0, 0.508013, 40.75, 23.55)" opacity="1">
</g>
<g id="PathID_191" transform="matrix(0.508013, 0, 0, 0.508013, 49.4, 23.55)" opacity="1">
<path style="fill:#7CCA31;fill-opacity:1" d="M21.15 0L21.15 -3.95Q19.7 -1.85 17.3 -0.6Q14.95 0.6 12.35 0.6Q9.65 0.6 7.5 -0.55Q5.4 -1.75 4.45 -3.85Q3.55 -6 3.55 -9.75L3.55 -26.55L10.6 -26.55L10.6 -14.35Q10.6 -8.75 10.95 -7.5Q11.35 -6.25 12.35 -5.5Q13.4 -4.8 14.95 -4.8Q16.75 -4.8 18.15 -5.75Q19.6 -6.75 20.1 -8.2Q20.65 -9.65 20.65 -15.35L20.65 -26.55L27.7 -26.55L27.7 0L21.15 0" />
</g>
<g id="PathID_192" transform="matrix(0.508013, 0, 0, 0.508013, 49.4, 23.55)" opacity="1">
</g>
<g id="PathID_193" transform="matrix(0.508013, 0, 0, 0.508013, 65.25, 23.55)" opacity="1">
<path style="fill:#7CCA31;fill-opacity:1" d="M10.45 0L3.4 0L3.4 -26.55L9.95 -26.55L9.95 -22.75Q11.6 -25.45 12.9 -26.3Q14.25 -27.15 15.95 -27.15Q18.35 -27.15 20.6 -25.8L18.4 -19.7Q16.65 -20.85 15.1 -20.85Q13.65 -20.85 12.6 -20Q11.6 -19.2 11 -17.05Q10.45 -14.95 10.45 -8.2L10.45 0" />
</g>
<g id="PathID_194" transform="matrix(0.508013, 0, 0, 0.508013, 65.25, 23.55)" opacity="1">
</g>
<g id="PathID_195" transform="matrix(0.508013, 0, 0, 0.508013, 75.35, 23.55)" opacity="1">
<path style="fill:#7CCA31;fill-opacity:1" d="M19.05 -8.45L26.05 -7.25Q24.7 -3.4 21.75 -1.4Q18.85 0.6 14.5 0.6Q7.55 0.6 4.25 -3.9Q1.65 -7.55 1.65 -13.05Q1.65 -19.65 5.1 -23.4Q8.55 -27.15 13.8 -27.15Q19.75 -27.15 23.15 -23.2Q26.6 -19.3 26.45 -11.25L8.85 -11.25Q8.9 -8.1 10.5 -6.35Q12.15 -4.65 14.55 -4.65Q16.2 -4.65 17.3 -5.55Q18.45 -6.45 19.05 -8.45M19.45 -15.55Q19.35 -18.55 17.85 -20.15Q16.35 -21.75 14.2 -21.75Q11.9 -21.75 10.4 -20.05Q8.95 -18.4 8.95 -15.55L19.45 -15.55" />
</g>
<g id="PathID_196" transform="matrix(0.508013, 0, 0, 0.508013, 75.35, 23.55)" opacity="1">
</g>
<g id="PathID_197" transform="matrix(0.508013, 0, 0, 0.508013, 89.8, 23.55)" opacity="1">
<path style="fill:#7CCA31;fill-opacity:1" d="M3.65 -23.6L2.35 -30.4L2.35 -36.65L10 -36.65L10 -30.4L8.85 -23.6L3.65 -23.6" />
</g>
<g id="PathID_198" transform="matrix(0.508013, 0, 0, 0.508013, 89.8, 23.55)" opacity="1">
</g>
<g id="PathID_199" transform="matrix(0.508013, 0, 0, 0.508013, 95.95, 23.55)" opacity="1">
<path style="fill:#7CCA31;fill-opacity:1" d="M1.2 -7.55L8.25 -8.65Q8.7 -6.6 10.05 -5.55Q11.45 -4.5 13.9 -4.5Q16.65 -4.5 18 -5.45Q18.95 -6.15 18.95 -7.35Q18.95 -8.15 18.45 -8.65Q17.9 -9.15 16.1 -9.6Q7.6 -11.45 5.3 -13Q2.2 -15.15 2.2 -19Q2.2 -22.45 4.9 -24.8Q7.6 -27.15 13.35 -27.15Q18.8 -27.15 21.45 -25.35Q24.1 -23.6 25.1 -20.15L18.45 -18.9Q18 -20.45 16.8 -21.25Q15.65 -22.1 13.45 -22.1Q10.7 -22.1 9.5 -21.3Q8.75 -20.75 8.75 -19.9Q8.75 -19.15 9.4 -18.6Q10.35 -17.9 15.95 -16.6Q21.55 -15.35 23.8 -13.5Q26 -11.65 26 -8.3Q26 -4.65 22.95 -2Q19.9 0.6 13.9 0.6Q8.5 0.6 5.3 -1.55Q2.15 -3.75 1.2 -7.55" />
</g>
<g id="PathID_200" transform="matrix(0.508013, 0, 0, 0.508013, 95.95, 23.55)" opacity="1">
</g>
<g id="PathID_201" transform="matrix(0.487979, 0, 0, 0.487979, 4.25, 79.6)" opacity="1">
<path style="fill:#7CCA31;fill-opacity:1" d="M2.25 -18.1Q2.25 -23.7 3.9 -27.5Q5.15 -30.3 7.3 -32.5Q9.5 -34.75 12.05 -35.8Q15.5 -37.3 19.95 -37.3Q28.05 -37.3 32.9 -32.25Q37.8 -27.2 37.8 -18.25Q37.8 -9.35 32.95 -4.35Q28.15 0.65 20.05 0.65Q11.9 0.65 7.05 -4.3Q2.25 -9.3 2.25 -18.1M9.9 -18.35Q9.9 -12.1 12.75 -8.9Q15.6 -5.7 20.05 -5.7Q24.45 -5.7 27.3 -8.85Q30.15 -12.05 30.15 -18.45Q30.15 -24.75 27.35 -27.85Q24.6 -30.95 20.05 -30.95Q15.45 -30.95 12.65 -27.8Q9.9 -24.65 9.9 -18.35" />
</g>
<g id="PathID_202" transform="matrix(0.487979, 0, 0, 0.487979, 4.25, 79.6)" opacity="1">
</g>
<g id="PathID_203" transform="matrix(0.487979, 0, 0, 0.487979, 23.65, 79.6)" opacity="1">
<path style="fill:#7CCA31;fill-opacity:1" d="M10.45 0L3.4 0L3.4 -26.55L9.95 -26.55L9.95 -22.75Q11.6 -25.45 12.9 -26.3Q14.25 -27.15 15.95 -27.15Q18.35 -27.15 20.6 -25.8L18.4 -19.7Q16.65 -20.85 15.1 -20.85Q13.65 -20.85 12.6 -20Q11.6 -19.2 11 -17.05Q10.45 -14.95 10.45 -8.2L10.45 0" />
</g>
<g id="PathID_204" transform="matrix(0.487979, 0, 0, 0.487979, 23.65, 79.6)" opacity="1">
</g>
<g id="PathID_205" transform="matrix(0.487979, 0, 0, 0.487979, 33.35, 79.6)" opacity="1">
<path style="fill:#7CCA31;fill-opacity:1" d="M3 1.7L11.05 2.7Q11.2 4.15 11.95 4.65Q12.95 5.4 15.1 5.4Q17.85 5.4 19.2 4.6Q20.15 4.05 20.6 2.8Q20.95 1.95 20.95 -0.45L20.95 -4.35Q17.8 0 13 0Q7.65 0 4.5 -4.5Q2.1 -8.1 2.1 -13.4Q2.1 -20.1 5.3 -23.6Q8.5 -27.15 13.25 -27.15Q18.2 -27.15 21.4 -22.8L21.4 -26.55L28 -26.55L28 -2.7Q28 2 27.2 4.3Q26.4 6.65 25 7.95Q23.6 9.3 21.25 10.05Q18.95 10.8 15.35 10.8Q8.6 10.8 5.75 8.45Q2.95 6.15 2.95 2.6L3 1.7M9.3 -13.8Q9.3 -9.6 10.9 -7.65Q12.55 -5.7 14.95 -5.7Q17.5 -5.7 19.25 -7.7Q21.05 -9.7 21.05 -13.65Q21.05 -17.75 19.35 -19.75Q17.65 -21.75 15.05 -21.75Q12.55 -21.75 10.9 -19.75Q9.3 -17.8 9.3 -13.8" />
</g>
<g id="PathID_206" transform="matrix(0.487979, 0, 0, 0.487979, 33.35, 79.6)" opacity="1">
</g>
<g id="PathID_207" transform="matrix(0.487979, 0, 0, 0.487979, 48.6, 79.6)" opacity="1">
<path style="fill:#7CCA31;fill-opacity:1" d="M8.95 -18.35L2.6 -19.5Q3.65 -23.4 6.25 -25.25Q8.9 -27.15 14.05 -27.15Q18.75 -27.15 21.05 -26Q23.35 -24.9 24.3 -23.2Q25.25 -21.5 25.25 -16.9L25.15 -8.7Q25.15 -5.2 25.45 -3.55Q25.8 -1.9 26.75 0L19.8 0Q19.5 -0.7 19.1 -2.05L18.85 -2.9Q17.05 -1.15 15 -0.25Q12.95 0.6 10.65 0.6Q6.55 0.6 4.2 -1.6Q1.85 -3.8 1.85 -7.2Q1.85 -9.45 2.9 -11.2Q3.95 -12.95 5.9 -13.85Q7.85 -14.8 11.45 -15.5Q16.4 -16.45 18.3 -17.25L18.3 -17.95Q18.3 -20 17.3 -20.85Q16.3 -21.75 13.55 -21.75Q11.65 -21.75 10.6 -20.95Q9.55 -20.2 8.95 -18.35M18.3 -12.65Q16.95 -12.2 14.05 -11.55Q11.15 -10.95 10.25 -10.35Q8.9 -9.4 8.9 -7.9Q8.9 -6.45 9.95 -5.4Q11.05 -4.35 12.75 -4.35Q14.65 -4.35 16.35 -5.55Q17.6 -6.5 18 -7.85Q18.3 -8.75 18.3 -11.25L18.3 -12.65" />
</g>
<g id="PathID_208" transform="matrix(0.487979, 0, 0, 0.487979, 48.6, 79.6)" opacity="1">
</g>
<g id="PathID_209" transform="matrix(0.487979, 0, 0, 0.487979, 62.5, 79.6)" opacity="1">
<path style="fill:#7CCA31;fill-opacity:1" d="M27.8 0L20.75 0L20.75 -13.5Q20.75 -17.8 20.3 -19.05Q19.85 -20.35 18.8 -21.05Q17.8 -21.75 16.4 -21.75Q14.6 -21.75 13.15 -20.75Q11.7 -19.75 11.15 -18.1Q10.65 -16.45 10.65 -12L10.65 0L3.6 0L3.6 -26.55L10.15 -26.55L10.15 -22.65Q13.6 -27.15 18.85 -27.15Q21.2 -27.15 23.1 -26.3Q25.05 -25.45 26 -24.15Q27 -22.85 27.4 -21.2Q27.8 -19.55 27.8 -16.5L27.8 0" />
</g>
<g id="PathID_210" transform="matrix(0.487979, 0, 0, 0.487979, 62.5, 79.6)" opacity="1">
</g>
<g id="PathID_211" transform="matrix(0.487979, 0, 0, 0.487979, 77.7, 79.6)" opacity="1">
<path style="fill:#7CCA31;fill-opacity:1" d="M3.7 -30.15L3.7 -36.65L10.75 -36.65L10.75 -30.15L3.7 -30.15M3.7 0L3.7 -26.55L10.75 -26.55L10.75 0L3.7 0" />
</g>
<g id="PathID_212" transform="matrix(0.487979, 0, 0, 0.487979, 77.7, 79.6)" opacity="1">
</g>
<g id="PathID_213" transform="matrix(0.487979, 0, 0, 0.487979, 84.65, 79.6)" opacity="1">
<path style="fill:#7CCA31;fill-opacity:1" d="M26.85 -18.7L19.9 -17.45Q19.55 -19.5 18.3 -20.55Q17.05 -21.6 15.1 -21.6Q12.45 -21.6 10.9 -19.75Q9.35 -17.95 9.35 -13.7Q9.35 -9 10.9 -7.05Q12.5 -5.15 15.2 -5.15Q17.2 -5.15 18.45 -6.25Q19.75 -7.4 20.3 -10.2L27.2 -9Q26.1 -4.25 23.05 -1.8Q20 0.6 14.9 0.6Q9.05 0.6 5.6 -3.05Q2.15 -6.75 2.15 -13.25Q2.15 -19.8 5.6 -23.45Q9.1 -27.15 15 -27.15Q19.85 -27.15 22.7 -25.05Q25.6 -22.95 26.85 -18.7" />
</g>
<g id="PathID_214" transform="matrix(0.487979, 0, 0, 0.487979, 84.65, 79.6)" opacity="1">
</g>
<g id="PathID_215" transform="matrix(0.487979, 0, 0, 0.487979, 98.5, 79.6)" opacity="1">
<path style="fill:#7CCA31;fill-opacity:1" d="M1.2 -7.55L8.25 -8.65Q8.7 -6.6 10.05 -5.55Q11.45 -4.5 13.9 -4.5Q16.65 -4.5 18 -5.45Q18.95 -6.15 18.95 -7.35Q18.95 -8.15 18.45 -8.65Q17.9 -9.15 16.1 -9.6Q7.6 -11.45 5.3 -13Q2.2 -15.15 2.2 -19Q2.2 -22.45 4.9 -24.8Q7.6 -27.15 13.35 -27.15Q18.8 -27.15 21.45 -25.35Q24.1 -23.6 25.1 -20.15L18.45 -18.9Q18 -20.45 16.8 -21.25Q15.65 -22.1 13.45 -22.1Q10.7 -22.1 9.5 -21.3Q8.75 -20.75 8.75 -19.9Q8.75 -19.15 9.4 -18.6Q10.35 -17.9 15.95 -16.6Q21.55 -15.35 23.8 -13.5Q26 -11.65 26 -8.3Q26 -4.65 22.95 -2Q19.9 0.6 13.9 0.6Q8.5 0.6 5.3 -1.55Q2.15 -3.75 1.2 -7.55" />
</g>
<g id="PathID_216" transform="matrix(0.487979, 0, 0, 0.487979, 98.5, 79.6)" opacity="1">
</g>
<g id="PathID_217" transform="matrix(0.210801, 0, 0, 0.210801, 34.9, 28.5)" opacity="1">
<path style="fill:#7CCA31;fill-opacity:1" d="M16.6 89.05Q11.65 81.1 8.15 73.75Q4.7 66.4 2.85 61.2L1 56L6.3 57.4Q11.6 58.85 19.15 61.75Q26.75 64.6 35.05 68.85Q43.4 73.1 49.45 78.75Q55.2 84.15 59.9 91.7Q64.6 99.3 67.9 106.3Q71.2 113.25 73 118.15L74.8 123.05L69.7 121.8Q64.6 120.6 57.3 118.05Q49.95 115.55 41.9 111.7Q33.8 107.8 27.85 102.55Q21.6 97 16.6 89.05" />
</g>
<g id="PathID_218" transform="matrix(0.210801, 0, 0, 0.210801, 34.9, 28.5)" opacity="1">
</g>
<g id="PathID_219" transform="matrix(0.210801, 0, 0, 0.210801, 34.9, 28.5)" opacity="1">
<path style="fill:#7CCA31;fill-opacity:1" d="M23.85 140Q17.55 138.65 12.25 136.85Q6.9 135.05 3.45 133.45L0 131.9L3.2 129.9Q6.45 127.9 11.45 125.45Q16.45 123 22.5 120.85Q28.6 118.7 34.3 118.4Q39.75 118.1 45.75 119.4Q51.75 120.7 56.8 122.4Q61.85 124.05 65.15 125.5L68.45 127L65.4 128.95Q62.4 130.95 57.65 133.45Q52.95 135.9 47.15 138.15Q41.4 140.35 35.95 140.85Q30.2 141.35 23.85 140" />
</g>
<g id="PathID_220" transform="matrix(0.210801, 0, 0, 0.210801, 34.9, 28.5)" opacity="1">
</g>
<g id="PathID_221" transform="matrix(0.210801, 0, 0, 0.210801, 34.9, 28.5)" opacity="1">
<path style="fill:#7CCA31;fill-opacity:1" d="M68.4 149.35Q66.3 151.05 64.25 152.25Q62.25 153.45 60.75 154.15L59.3 154.85L59.35 153.2Q59.45 151.6 59.8 149.3Q60.15 146.95 60.9 144.35Q61.6 141.8 62.95 139.85Q64.2 137.95 66.2 136.4Q68.25 134.8 70.15 133.65Q72.05 132.5 73.45 131.85L74.85 131.2L74.8 132.7Q74.8 134.25 74.5 136.5Q74.25 138.75 73.6 141.25Q73 143.75 71.8 145.7Q70.5 147.7 68.4 149.35" />
</g>
<g id="PathID_222" transform="matrix(0.210801, 0, 0, 0.210801, 34.9, 28.5)" opacity="1">
</g>
<g id="PathID_223" transform="matrix(0.210801, 0, 0, 0.210801, 34.9, 28.5)" opacity="1">
<path style="fill:#7CCA31;fill-opacity:1" d="M88.95 145.65Q87.7 143.7 87.05 141.2Q86.45 138.7 86.15 136.45Q85.9 134.2 85.85 132.65L85.85 131.15L87.2 131.8Q88.6 132.45 90.55 133.6Q92.45 134.75 94.45 136.35Q96.5 137.95 97.8 139.85Q99.1 141.75 99.85 144.35Q100.6 146.95 100.95 149.25Q101.3 151.6 101.35 153.2L101.45 154.85L99.95 154.15Q98.45 153.45 96.45 152.25Q94.4 151 92.3 149.3Q90.2 147.65 88.95 145.65" />
</g>
<g id="PathID_224" transform="matrix(0.210801, 0, 0, 0.210801, 34.9, 28.5)" opacity="1">
</g>
<g id="PathID_225" transform="matrix(0.210801, 0, 0, 0.210801, 34.9, 28.5)" opacity="1">
<path style="fill:#7CCA31;fill-opacity:1" d="M133.1 102.55Q127.1 107.8 119 111.7Q110.95 115.55 103.6 118.05Q96.3 120.6 91.2 121.8L86.15 123.05L87.9 118.15Q89.7 113.25 93 106.3Q96.3 99.3 101 91.7Q105.7 84.15 111.5 78.75Q117.5 73.1 125.85 68.85Q134.15 64.6 141.75 61.75Q149.3 58.85 154.6 57.4L159.95 56L158.05 61.2Q156.2 66.4 152.75 73.75Q149.25 81.1 144.3 89.05Q139.3 97 133.1 102.55" />
</g>
<g id="PathID_226" transform="matrix(0.210801, 0, 0, 0.210801, 34.9, 28.5)" opacity="1">
</g>
<g id="PathID_227" transform="matrix(0.210801, 0, 0, 0.210801, 34.9, 28.5)" opacity="1">
<path style="fill:#7CCA31;fill-opacity:1" d="M125.25 140.85Q119.75 140.35 114 138.15Q108.25 135.9 103.55 133.45Q98.8 130.95 95.8 128.95L92.8 127L96.05 125.5Q99.35 124.05 104.4 122.4Q109.4 120.7 115.45 119.4Q121.45 118.1 126.9 118.4Q132.55 118.7 138.6 120.85Q144.65 123 149.7 125.45Q154.7 127.9 157.95 129.9L161.2 131.9L157.7 133.45Q154.25 135.05 148.9 136.85Q143.6 138.65 137.3 140Q130.95 141.3 125.25 140.85" />
</g>
<g id="PathID_228" transform="matrix(0.210801, 0, 0, 0.210801, 34.9, 28.5)" opacity="1">
</g>
<g id="PathID_229" transform="matrix(0.210801, 0, 0, 0.210801, 34.9, 28.5)" opacity="1">
<path style="fill:#7CCA31;fill-opacity:1" d="M61.45 41.4Q64.9 30.35 69.1 21.15Q73.3 11.9 76.8 5.95L80.35 0L83.7 6Q87.1 12 91.1 21.2Q95.1 30.45 98.4 41.5Q101.75 52.55 101.6 62.7Q101.45 72.35 98.1 82.9Q94.75 93.4 90.8 102.1Q86.85 110.85 83.6 116.5L80.35 122.2L76.9 116.55Q73.5 110.9 69.4 102.2Q65.3 93.5 61.8 83Q58.35 72.45 58.2 62.7Q58 52.5 61.45 41.4" />
</g>
<g id="PathID_230" transform="matrix(0.210801, 0, 0, 0.210801, 34.9, 28.5)" opacity="1">
</g>
</svg>
